<svg xmlns="http://www.w3.org/2000/svg" viewBox="0 0 24 24" width="24" height="24"><rect x="2.5" y="2.5" width="19" height="19" rx="2" fill="#fbf6e6" stroke="#154f4b" stroke-width="1.3"/><rect x="4.6" y="4.6" width="3.4" height="3.4" fill="#f3e3b0"/><rect x="8.8" y="4.6" width="3.4" height="3.4" fill="#f3e3b0"/><rect x="13" y="4.6" width="3.4" height="3.4" fill="#f3e3b0"/><rect x="17.2" y="4.6" width="3.4" height="3.4" fill="#e0a85a"/><rect x="4.6" y="8.8" width="3.4" height="3.4" fill="#f3e3b0"/><rect x="8.8" y="8.8" width="3.4" height="3.4" fill="#e0a85a"/><rect x="13" y="8.8" width="3.4" height="3.4" fill="#e0a85a"/><rect x="17.2" y="8.8" width="3.4" height="3.4" fill="#b8623a"/><rect x="4.6" y="13" width="3.4" height="3.4" fill="#e0a85a"/><rect x="8.8" y="13" width="3.4" height="3.4" fill="#e0a85a"/><rect x="13" y="13" width="3.4" height="3.4" fill="#b8623a"/><rect x="17.2" y="13" width="3.4" height="3.4" fill="#b8623a"/><rect x="4.6" y="17.2" width="3.4" height="3.4" fill="#e0a85a"/><rect x="8.8" y="17.2" width="3.4" height="3.4" fill="#b8623a"/><rect x="13" y="17.2" width="3.4" height="3.4" fill="#b8623a"/><rect x="17.2" y="17.2" width="3.4" height="3.4" fill="#1f6f6a"/></svg>
